<svg xmlns="http://www.w3.org/2000/svg" width="1024" height="1024" viewBox="0 0 108 108">
  <!-- Background -->
  <rect width="108" height="108" fill="#FAF8F5"/>
  <!-- Gold circle -->
  <circle cx="54" cy="54" r="34" fill="#B8942F"/>
  <!-- Sparkle -->
  <path d="M76,30 L77.5,26 L79,30 L83,31.5 L79,33 L77.5,37 L76,33 L72,31.5 Z" fill="#D4BC6A"/>
  <!-- Fork -->
  <line x1="40" y1="40" x2="40" y2="52" stroke="white" stroke-width="2" stroke-linecap="round"/>
  <line x1="44" y1="40" x2="44" y2="52" stroke="white" stroke-width="2" stroke-linecap="round"/>
  <line x1="48" y1="40" x2="48" y2="52" stroke="white" stroke-width="2" stroke-linecap="round"/>
  <path d="M38,52 Q38,56 44,56 Q50,56 50,52" fill="none" stroke="white" stroke-width="2" stroke-linecap="round"/>
  <line x1="44" y1="56" x2="44" y2="72" stroke="white" stroke-width="3" stroke-linecap="round"/>
  <!-- Heart between -->
  <path d="M54,51 C54,49 52,47 50.5,47 C48.5,47 47,49 47,51 C47,54 54,58 54,58 C54,58 61,54 61,51 C61,49 59.5,47 57.5,47 C56,47 54,49 54,51 Z" fill="white" transform="translate(3,-2) scale(0.6)" fill-opacity="0.0"/>
  <path d="M55.5,52 L56.5,50.5 Q57.5,49 58.5,50.5 L59.5,52 Q57.5,55 55.5,52 Z" fill="white"/>
  <!-- Pill/capsule -->
  <rect x="63" y="40" width="8" height="28" rx="4" fill="white"/>
  <line x1="63" y1="54" x2="71" y2="54" stroke="#B8942F" stroke-width="1.5"/>
  <rect x="63" y="54" width="8" height="14" rx="4" fill="#E8DCC8"/>
  <path d="M63,58 Q63,54 67,54 Q71,54 71,58" fill="white" opacity="0"/>
</svg>
