<svg xmlns="http://www.w3.org/2000/svg" width="1024" height="1024" viewBox="0 0 108 108">
  <!-- Background -->
  <rect width="108" height="108" fill="#FAF8F5"/>
  <!-- Gold circle -->
  <circle cx="54" cy="54" r="34" fill="#B8942F"/>
  <!-- Sparkle -->
  <path d="M76,30 L77.5,26 L79,30 L83,31.5 L79,33 L77.5,37 L76,33 L72,31.5 Z" fill="#D4BC6A"/>
  <!-- Python snake body (S-curve) -->
  <path d="M46,38 Q46,44 52,44 L56,44 Q62,44 62,50 Q62,56 56,56 L52,56 Q46,56 46,62 Q46,68 52,68 L56,68 Q62,68 62,74"
        stroke="white" stroke-width="5" fill="none" stroke-linecap="round"/>
  <!-- Snake head (top) -->
  <circle cx="46" cy="38" r="4" fill="white"/>
  <!-- Snake eye (top) -->
  <circle cx="44.5" cy="37" r="1.2" fill="#B8942F"/>
  <!-- Snake tail tip (bottom) -->
  <circle cx="62" cy="74" r="2.5" fill="white"/>
  <!-- Tongue -->
  <path d="M43,40 L40,42 M43,40 L40,38.5" stroke="#D4BC6A" stroke-width="1" stroke-linecap="round"/>
</svg>
