<svg xmlns="http://www.w3.org/2000/svg" width="1024" height="1024" viewBox="0 0 108 108">
  <!-- Background -->
  <rect width="108" height="108" fill="#FAF8F5"/>
  <!-- Gold circle -->
  <circle cx="54" cy="54" r="34" fill="#B8942F"/>
  <!-- Sparkle -->
  <path d="M76,30 L77.5,26 L79,30 L83,31.5 L79,33 L77.5,37 L76,33 L72,31.5 Z" fill="#D4BC6A"/>
  <!-- Clipboard body -->
  <rect x="40" y="38" width="28" height="32" rx="3" fill="white"/>
  <!-- Clipboard clip -->
  <rect x="48" y="35" width="12" height="6" rx="2" fill="white"/>
  <circle cx="54" cy="38" r="2" fill="#B8942F"/>
  <!-- Checklist lines -->
  <rect x="46" y="47" width="3" height="3" rx="0.5" fill="#B8942F"/>
  <rect x="51" y="48" width="12" height="1.5" rx="0.75" fill="#D4BC6A"/>
  <rect x="46" y="53" width="3" height="3" rx="0.5" fill="#B8942F"/>
  <rect x="51" y="54" width="10" height="1.5" rx="0.75" fill="#D4BC6A"/>
  <rect x="46" y="59" width="3" height="3" rx="0.5" fill="#B8942F"/>
  <rect x="51" y="60" width="13" height="1.5" rx="0.75" fill="#D4BC6A"/>
</svg>
